<svg height="512" viewBox="0 0 64 64" width="512" xmlns="http://www.w3.org/2000/svg"><g id="Fill_Outline" data-name="Fill Outline"><g id="Color"><g><g><path d="m7 3h42v58h-42z" fill="#aae1f9"/><path d="m49 5h4v56h-4z" fill="#4891d3"/><path d="m39 55a24 24 0 0 1 -24-24v-28h-8v58h42v-6z" fill="#57b7eb"/></g><g><path d="m43.749 16.522h8v25h-8z" fill="#a1d51c" transform="matrix(.866 .5 -.5 .866 20.908 -19.986)"/><path d="m36.499 48.508 1.536-10.661 6.928 4z" fill="#fcbc04"/><path d="m57.5 9.135a4 4 0 0 1 4 4v2a0 0 0 0 1 0 0h-8a0 0 0 0 1 0 0v-2a4 4 0 0 1 4-4z" fill="#aae1f9" transform="matrix(.866 .5 -.5 .866 13.771 -27.124)"/><path d="m50.999 14.465h8v4h-8z" fill="#d0d8da" transform="matrix(.866 .5 -.5 .866 15.601 -25.294)"/><path d="m41.578 44.512-4.157-2.4-.922 6.396z" fill="#93999a"/><path d="m48.2 30.243a55.379 55.379 0 0 1 -6.924 9.475l3.688 2.129 12.5-21.65-2.6-1.5z" fill="#7ab92d"/><path d="m38.405 42.68 3.173 1.832 3.385-2.665-3.688-2.129c-.922 1.019-1.875 2.013-2.87 2.962z" fill="#e59730"/><path d="m59 9.537c-.1-.056-.2-.087-.3-.134a3.986 3.986 0 0 1 -.338 3.232l-1.5 2.6 2.6 1.5 1-1.732a4 4 0 0 0 -1.462-5.466z" fill="#57b7eb"/><path d="m55.164 16.215h4v3h-4z" fill="#93999a" transform="matrix(.5 -.866 .866 .5 13.241 58.363)"/><path d="m37.178 43.8-.678 4.708 5.079-4-3.174-1.828c-.405.38-.815.746-1.227 1.12z" fill="#656b76"/></g><g><path d="m36 19a8 8 0 1 0 -13 6.24v1.76h10v-1.76a7.984 7.984 0 0 0 3-6.24z" fill="#f9e109"/><rect fill="#d0d8da" height="4" rx="2" width="14" x="21" y="27"/><path d="m23 31h10a0 0 0 0 1 0 0v1a5 5 0 0 1 -5 5 5 5 0 0 1 -5-5v-1a0 0 0 0 1 0 0z" fill="#93999a"/><path d="m25 16a8.948 8.948 0 0 1 1.422-4.843 8 8 0 0 0 -3.422 14.083v1.76h10v-1.76c.107-.086.2-.184.306-.275a8.995 8.995 0 0 1 -8.306-8.965z" fill="#fcbc04"/><path d="m23 27a2 2 0 0 0 0 4h10a2 2 0 0 0 2-2h-10a2 2 0 0 1 -2-2z" fill="#93999a"/><path d="m31 33h1.9a4.988 4.988 0 0 0 .1-1v-1h-10v1a4.99 4.99 0 0 0 3.206 4.654 4.986 4.986 0 0 1 4.794-3.654z" fill="#656b76"/></g><g><path d="m17 47h10v10h-10z" fill="#7ab92d"/><path d="m31 43h-10l-4 4h10z" fill="#c4f236"/><path d="m31 53-4 4v-10l4-4z" fill="#a1d51c"/></g></g></g><g id="Outline_copy" data-name="Outline copy"><g fill="#323232"><path d="m53 33.928a1 1 0 0 0 -1 1v25.072h-2v-18.144a1 1 0 1 0 -2 0v18.144h-40v-8a1 1 0 0 0 -2 0v2.816a2.995 2.995 0 1 1 4-2.816 1 1 0 0 0 2 0 5.009 5.009 0 0 0 -4-4.9v-5.916a3 3 0 0 1 2 2.816 1 1 0 0 0 2 0 5.009 5.009 0 0 0 -4-4.9v-5.916a3 3 0 0 1 2 2.816 1 1 0 0 0 2 0 5.009 5.009 0 0 0 -4-4.9v-5.916a3 3 0 0 1 2 2.816 1 1 0 0 0 2 0 5.009 5.009 0 0 0 -4-4.9v-5.916a3 3 0 0 1 2 2.816 1 1 0 0 0 2 0 5.009 5.009 0 0 0 -4-4.9v-3.1a1 1 0 0 0 -2 0v2.816a2.995 2.995 0 1 1 4-2.816 1 1 0 0 0 2 0 5.009 5.009 0 0 0 -4-4.9v-3.1h40v7.856a1 1 0 1 0 2 0v-5.856h2a1 1 0 0 0 2-.072v-.928a1 1 0 0 0 -1-1h-3v-1a1 1 0 0 0 -1-1h-42a1 1 0 0 0 -1 1v4.1a4.983 4.983 0 0 0 -1.969 8.9 4.954 4.954 0 0 0 0 8 4.954 4.954 0 0 0 0 8 4.954 4.954 0 0 0 0 8 4.954 4.954 0 0 0 0 8 4.983 4.983 0 0 0 1.969 8.9v4.1a1 1 0 0 0 1 1h46a1 1 0 0 0 1-1v-26.072a1 1 0 0 0 -1-1zm-47-16.744v5.632a2.982 2.982 0 0 1 0-5.632zm0 8v5.632a2.982 2.982 0 0 1 0-5.632zm0 8v5.632a2.982 2.982 0 0 1 0-5.632zm0 8v5.632a2.982 2.982 0 0 1 0-5.632z"/><path d="m33 57h4a5.006 5.006 0 0 0 5-5v-2a1 1 0 0 0 -2 0v2a3 3 0 0 1 -3 3h-4a1 1 0 0 0 0 2z"/><path d="m16 42a1 1 0 0 0 2 0v-4a2 2 0 0 1 2-2 1 1 0 0 0 0-2 4 4 0 0 0 -4 4z"/><path d="m17 58h10a1 1 0 0 0 .707-.293l4-4a1 1 0 0 0 .293-.707v-10h-.009a.973.973 0 0 0 -.991-1h-10a1 1 0 0 0 -.707.293l-4 4a1 1 0 0 0 .707 1.707h9v8h-8v-5a1 1 0 0 0 -2 0v6a1 1 0 0 0 1 1zm11-3.414v-7.172l2-2v7.172zm-8.586-8.586 2-2h7.172l-2 2z"/><path d="m37 19a8.99 8.99 0 0 0 -1.253-4.566 1 1 0 0 0 -1.722 1.017 6.974 6.974 0 0 1 -1.651 9.009 1 1 0 0 0 -.374.78v.76h-.883l.877-7.89a1 1 0 0 0 -1.31-1.059l-2.684.9-2.684-.9a1 1 0 0 0 -1.31 1.059l.877 7.89h-.883v-.76a1 1 0 0 0 -.374-.78 6.993 6.993 0 0 1 7.923-11.485 1 1 0 1 0 1.017-1.723 8.994 8.994 0 0 0 -10.566 14.448v.481a2.982 2.982 0 0 0 0 5.632v.187a6 6 0 0 0 12 0v-.184a2.982 2.982 0 0 0 0-5.632v-.484a8.953 8.953 0 0 0 3-6.7zm-10.833.443 1.517.506a1 1 0 0 0 .632 0l1.517-.506-.728 6.557h-2.205zm1.833 16.557a4 4 0 0 1 -4-4h8a4 4 0 0 1 -4 4zm5-6h-10a1 1 0 0 1 0-2h10a1 1 0 0 1 0 2z"/><circle cx="16" cy="19" r="1"/><circle cx="40" cy="19" r="1"/><circle cx="28" cy="7" r="1"/><path d="m18.108 12.134a1 1 0 1 0 .366 1.366 1 1 0 0 0 -.366-1.366z"/><path d="m37.892 25.866a1 1 0 1 0 -.366-1.366 1 1 0 0 0 .366 1.366z"/><circle cx="34" cy="8.608" r="1" transform="matrix(.966 -.259 .259 .966 -1.069 9.093)"/><path d="m38.892 13.866a1 1 0 1 0 -1.366-.366 1 1 0 0 0 1.366.366z"/><path d="m18.108 25.866a1 1 0 1 0 -1.366-.366 1 1 0 0 0 1.366.366z"/><path d="m22.5 9.474a1 1 0 1 0 -1.366-.366 1 1 0 0 0 1.366.366z"/><path d="m59.5 8.67a5.006 5.006 0 0 0 -6.831 1.83l-1 1.733-2 3.464-12.5 21.651c-.007.012-.006.025-.013.038a1.008 1.008 0 0 0 -.111.319v.018l-.612 4.243-.921 6.4a1 1 0 0 0 1.608.928l3.627-2.854 4.826-3.8.009-.007a1 1 0 0 0 .221-.255c.007-.011.02-.018.027-.03l8.5-14.723a1 1 0 0 0 -1.733-1l-8 13.856-1.731-1 11.5-19.919 1.731 1-1.5 2.6a1 1 0 0 0 1.733 1l2-3.464 2-3.464 1-1.733a5.007 5.007 0 0 0 -1.83-6.831zm-1 1.733a3 3 0 0 1 1.1 4.1l-.5.867-5.2-3 .5-.867a3 3 0 0 1 4.1-1.103zm-.4 6.7-1 1.732-2.6-1.5-2.6-1.5 1-1.732 2.6 1.5zm-7.2.464 1.732 1-11.5 19.919-1.732-1zm-9.41 25.744-2.984-1.723.307-2.132 4.37 2.523zm-3.645 2.869.354-2.46 1.6.923z"/></g></g></g></svg>