<svg id="color" enable-background="new 0 0 24 24" height="512" viewBox="0 0 24 24" width="512" xmlns="http://www.w3.org/2000/svg"><path d="m20.72.22-1.914 1.914c-1.971-1.37-4.322-2.134-6.806-2.134-6.617 0-12 5.383-12 12 0 1.172.172 2.338.512 3.466.118.391.531.622.935.502.397-.12.621-.538.502-.935-.298-.987-.449-2.008-.449-3.033 0-5.79 4.71-10.5 10.5-10.5 2.08 0 4.055.607 5.732 1.708l-1.512 1.512c-.471.471-.136 1.28.53 1.28h4.5c.414 0 .75-.336.75-.75v-4.5c0-.668-.811-1.001-1.28-.53z" fill="#607d8b"/><path d="m23.488 8.534c-.119-.396-.539-.62-.935-.502-.396.12-.621.538-.502.935.298.987.449 2.008.449 3.033 0 5.79-4.71 10.5-10.5 10.5-2.075 0-4.047-.604-5.722-1.701l1.505-1.522c.468-.473.132-1.277-.533-1.277h-4.5c-.2 0-.393.08-.533.223-.141.142-.219.335-.217.535l.05 4.5c.007.667.819.99 1.283.519l1.877-1.899c1.968 1.362 4.313 2.122 6.79 2.122 6.617 0 12-5.383 12-12 0-1.172-.172-2.338-.512-3.466z" fill="#607d8b"/><path d="m17 15c0 1.105-2.239 2-5 2s-5-.895-5-2v-3h10z" fill="#00bcd4"/><path d="m17 12c0 1.105-2.239 2-5 2s-5-.896-5-2v-3h10z" fill="#4dd0e1"/><path d="m17 9c0 1.105-2.239 2-5 2s-5-.896-5-2 2.239-2 5-2 5 .896 5 2z" fill="#00bcd4"/><path d="m12 0c-6.617 0-12 5.383-12 12 0 1.172.172 2.338.512 3.466.096.321.392.534.718.534.071 0 .144-.01.216-.032.397-.12.621-.538.502-.935-.297-.987-.448-2.008-.448-3.033 0-5.79 4.71-10.5 10.5-10.5z" fill="#546d79"/><path d="m7.25 18h-4.5c-.2 0-.393.08-.533.223-.141.142-.219.335-.217.535l.05 4.5c.005.449.375.742.757.742.186 0 .374-.069.526-.223l1.877-1.899c1.968 1.362 4.313 2.122 6.79 2.122v-1.5c-2.075 0-4.047-.604-5.722-1.701l1.505-1.522c.468-.473.132-1.277-.533-1.277z" fill="#546d79"/><path d="m7 12v3c0 1.105 2.239 2 5 2v-3c-2.761 0-5-.896-5-2z" fill="#00a4b9"/><path d="m7 9v3c0 1.105 2.239 2 5 2v-3c-2.761 0-5-.896-5-2z" fill="#43b5c4"/><path d="m12 7c-2.761 0-5 .896-5 2 0 1.105 2.239 2 5 2z" fill="#00a4b9"/></svg>