<svg id="Icon_Set" enable-background="new 0 0 256 256" height="512" viewBox="0 0 256 256" width="512" xmlns="http://www.w3.org/2000/svg"><path d="m157.054 102.774c-27.591 0-49.963 10.312-49.963 23.052 0-12.74-22.372-23.052-49.963-23.052s-49.962 10.312-49.962 23.052v124.019.888h.042 99.842.083 99.842.042v-.888-124.019c0-12.74-22.372-23.052-49.963-23.052z" fill="#ffe2e2"/><path d="m187.339 199.153h-49.039c-1.105 0-2-.895-2-2v-49.039h49.039c1.105 0 2 .895 2 2z" fill="#ff4a73"/><path d="m248.834 61.804c0-18.127-15.318-32.677-33.716-31.411-15.667 1.078-28.301 13.867-29.206 29.545-.391 6.772 1.362 13.11 4.641 18.405 3.168 5.117 4.853 11.012 4.853 17.03v18.028h42.319v-15.624c0-6.43 1.838-12.767 5.505-18.049 3.533-5.086 5.604-11.262 5.604-17.924z" fill="#f9d335"/><path d="m207.02 125.823v124.91h-15v-124.91c0-11.56-18.44-21.12-42.47-22.79 2.45-.17 4.95-.26 7.5-.26 27.59 0 49.97 10.31 49.97 23.05z" fill="#ffcfcf"/><path d="m64.63 103.033c-24.03 1.67-42.46 11.23-42.46 22.79v124.91h-15v-124.91c0-12.74 22.37-23.05 49.96-23.05 2.55 0 5.05.09 7.5.26z" fill="#ffefee"/><path d="m207.017 249.845c0 .291-.014.597-.042.888h-99.842c-.028-.291-.042-.597-.042-.888 0-12.727 22.372-23.052 49.963-23.052s49.963 10.325 49.963 23.052z" fill="#ffe2e2"/><path d="m107.091 249.845c0 .291-.014.597-.042.888h-99.842c-.028-.291-.042-.597-.042-.888 0-12.727 22.372-23.052 49.963-23.052s49.963 10.325 49.963 23.052z" fill="#ffe2e2"/><path d="m207.02 249.843c0 .29-.02.6-.04.89h-15c.02-.29.04-.6.04-.89 0-11.54-18.44-21.12-42.47-22.79 2.45-.17 4.95-.26 7.5-.26 27.59 0 49.97 10.33 49.97 23.05z" fill="#ffcfcf"/><path d="m122.09 249.843c0 .29.02.6.04.89h-15c-.02-.29-.04-.6-.04-.89 0-12.72 22.37-23.05 49.96-23.05 2.55 0 5.05.09 7.5.26-24.03 1.67-42.46 11.25-42.46 22.79z" fill="#ffefee"/><path d="m107.09 249.843c0 .29-.01.6-.04.89h-15c.03-.29.04-.6.04-.89 0-11.54-18.43-21.12-42.46-22.79 2.45-.17 4.95-.26 7.5-.26 27.59 0 49.96 10.33 49.96 23.05z" fill="#ffcfcf"/><path d="m22.17 249.843c0 .29.01.6.04.89h-15c-.03-.29-.04-.6-.04-.89 0-12.72 22.37-23.05 49.96-23.05 2.55 0 5.05.09 7.5.26-24.03 1.67-42.46 11.25-42.46 22.79z" fill="#ffefee"/><path d="m187.34 150.113v49.04h-15v-49.04c0-1.1-.9-2-2-2h15c1.1 0 2 .9 2 2z" fill="#ea2a6a"/><path d="m153.3 199.153h-15c-1.1 0-2-.9-2-2v-49.04h15v49.04c0 1.1.9 2 2 2z" fill="#f973a3"/><path d="m142.107 121.821c.827-1.433 2.895-1.433 3.722 0l9.5 16.454 9.5 16.454c.827 1.433-.207 3.223-1.861 3.223h-19-19c-1.654 0-2.688-1.791-1.861-3.223l9.5-16.454z" fill="#44c7b6"/><path d="m138.11 154.733c-.83 1.43.2 3.22 1.86 3.22h-15c-1.66 0-2.69-1.79-1.86-3.22l9.5-16.46 9.5-16.45c.82-1.44 2.89-1.44 3.72 0l5.64 9.77-3.86 6.68z" fill="#4bdbc3"/><circle cx="173.503" cy="195.463" fill="#3193f3" r="21.215"/><path d="m194.72 195.463c0 11.72-9.5 21.21-21.22 21.21-2.64 0-5.17-.48-7.5-1.37 8.02-3.02 13.72-10.76 13.72-19.84s-5.7-16.82-13.72-19.85c2.33-.89 4.86-1.37 7.5-1.37 11.72 0 21.22 9.5 21.22 21.22z" fill="#307fed"/><path d="m181 215.303c-2.33.89-4.86 1.37-7.5 1.37-11.71 0-21.21-9.49-21.21-21.21s9.5-21.22 21.21-21.22c2.64 0 5.17.48 7.5 1.37-8.01 3.03-13.71 10.77-13.71 19.85s5.7 16.82 13.71 19.84z" fill="#35b1fc"/><path d="m219.809 141.601h-6.527c-9.872 0-17.875-8.003-17.875-17.875v-10.324h42.277v10.324c0 9.872-8.003 17.875-17.875 17.875z" fill="#87828e"/><path d="m237.68 113.403v10.32c0 9.87-8 17.88-17.87 17.88h-6.53c-1.46 0-2.88-.18-4.24-.51 7.83-1.9 13.64-8.96 13.64-17.37v-10.32z" fill="#796e84"/><path d="m224.04 141.093c-1.35.34-2.77.51-4.23.51h-6.53c-9.87 0-17.87-8.01-17.87-17.88v-10.32h15v10.32c0 8.41 5.81 15.47 13.63 17.37z" fill="#a4a4a5"/><path d="m248.83 61.803c0 6.66-2.07 12.84-5.6 17.93-3.67 5.28-5.5 11.61-5.5 18.04v15.63h-15v-15.63c0-6.43 1.83-12.76 5.5-18.04 3.53-5.09 5.6-11.27 5.6-17.93 0-14.8-10.2-27.21-23.96-30.58 1.7-.43 3.45-.71 5.25-.83 18.4-1.27 33.71 13.28 33.71 31.41z" fill="#f2c300"/><path d="m205.55 78.343c3.17 5.12 4.86 11.01 4.86 17.03v18.03h-15v-18.03c0-6.02-1.69-11.91-4.86-17.03-3.28-5.29-5.03-11.63-4.64-18.41.91-15.67 13.54-28.46 29.21-29.54 3.38-.23 6.66.07 9.75.83-13.16 3.22-23.15 14.83-23.96 28.71-.39 6.78 1.36 13.12 4.64 18.41z" fill="#f9e27d"/><path d="m195.407 105.37h42.319v18.028h-42.319z" fill="#87828e"/><path d="m222.73 105.373h15v18.03h-15z" fill="#796e84"/><path d="m195.41 105.373h15v18.03h-15z" fill="#a4a4a5"/><g fill="#5f266d"><path d="m40.98 141.823h31.79c5.281 0 5.294-8 0-8h-31.79c-5.303 0-5.276 8 0 8z"/><path d="m28.36 163.523h57.03c5.285 0 5.293-8 0-8h-57.03c-5.285 0-5.293 8 0 8z"/><path d="m85.39 177.223h-57.03c-5.285 0-5.293 8 0 8h57.03c5.285 0 5.293-8 0-8z"/><path d="m85.39 198.923h-57.03c-5.285 0-5.293 8 0 8h57.03c5.285 0 5.293-8 0-8z"/><path d="m191.34 150.113c0-3.31-2.69-6-6-6h-22.03l-14.02-24.29c-2.369-4.13-8.3-4.059-10.65 0l-19 32.91c-2.359 4.09.602 9.22 5.33 9.22h7.33v35.2c0 3.31 2.69 6 6 6h11.2c3.25 10.15 12.78 17.52 24 17.52 13.91 0 25.22-11.31 25.22-25.21 0-6.95-2.83-13.24-7.38-17.81zm-31.58 3.84c-18.268 0-10.731 0-31.58 0l15.79-27.36c.013.023 15.79 27.36 15.79 27.36zm13.74 58.72c-9.523 0-17.21-7.764-17.21-17.21 0-.1 0-.21.01-.31.16-9.35 7.81-16.9 17.2-16.9 9.456 0 17.22 7.679 17.22 17.21 0 9.48-7.725 17.21-17.22 17.21zm0-42.42c-13.8 0-25.04 11.14-25.2 24.9h-8v-33.2h22.67c4.749 0 7.679-5.167 5.32-9.22l-.36-.62h15.41v20.14c-3.02-1.29-6.35-2-9.84-2z"/><path d="m214.84 26.403c-17.74 1.22-31.89 15.54-32.92 33.3-1.076 18.411 9.49 20.405 9.49 35.67v9.39c-9.58-3.88-21.64-5.99-34.36-5.99-16.225 0-39.965 4.102-49.96 16.5-9.946-12.337-33.546-16.5-49.96-16.5-13.91 0-27.06 2.53-37 7.12-10.94 5.04-16.96 12.12-16.96 19.93v124.91c0 2.209 1.869 4 4.04 4h199.77c2.194 0 4.04-1.751 4.04-4v-105.24c1.5.142 1.703.11 8.79.11 11.94 0 21.68-9.63 21.86-21.53.105-.577.06-25.709.06-26.3 0-16.224 11.1-17.358 11.1-35.97 0-19.997-16.826-36.845-37.99-35.4zm4.97 111.2c-7.062 0-7.391.056-8.79-.19-5.323-.862-9.697-4.823-11.11-10.01h33.27c-1.61 5.87-7 10.2-13.37 10.2zm13.87-18.2c-32.204 0-2.042 0-34.27 0 0-3.722 0-6.289 0-10h34.32c0 6.855-.05 9.647-.05 10zm.05-21.63v3.6h-13.16v-18.94l11.3-11.3c3.729-3.729-1.894-9.402-5.66-5.66l-5.64 5.64v-7.98c0-5.288-8-5.285-8 0v7.98l-5.64-5.64c-3.74-3.74-9.4 1.92-5.66 5.66l11.3 11.3v18.94h-13.16v-6c0-17.687-10.396-19.72-9.5-35.2.79-13.76 11.75-24.84 25.48-25.79 16.058-1.101 29.44 11.524 29.44 27.42 0 15.793-11.1 16.981-11.1 35.97zm-222.56 28.05c0-9.01 18.87-19.05 45.96-19.05 27.08 0 45.96 10.04 45.96 19.05v109.66c-9.42-7.68-26.31-12.69-45.96-12.69s-36.54 5.01-45.96 12.69zm.72 120.91c3.69-8.06 21.25-15.94 45.24-15.94s41.54 7.88 45.24 15.94zm99.92 0c3.7-8.06 21.25-15.94 45.24-15.94 24 0 41.55 7.88 45.24 15.94zm91.21-11.25c-9.42-7.68-26.31-12.69-45.97-12.69-19.65 0-36.54 5.01-45.96 12.69v-109.66c0-9.01 18.88-19.05 45.96-19.05 14.24 0 26.21 2.77 34.36 6.72v10.23c0 8.35 4.71 15.63 11.61 19.31z"/><path d="m47.92 120.913c1 0 2.915-.176 5.36-.08 5.312.095 5.435-7.904.16-8-1.88-.034-3.687-.028-5.72.08-5.159.28-4.946 8 .2 8z"/><path d="m25.37 128.773c.02-.03 2.59-3.1 9.17-5.4 4.982-1.716 2.384-9.301-2.63-7.55-8.88 3.1-12.47 7.53-12.85 8.03-3.291 4.267 3.136 9.019 6.31 4.92z"/><path d="m221.346 16.783v-11.55c0-5.285-8-5.292-8 0v11.55c0 5.285 8 5.293 8 0z"/><path d="m235.933 23.854 8.484-8.484c3.736-3.737-1.913-9.399-5.657-5.657l-8.484 8.484c-3.737 3.738 1.929 9.383 5.657 5.657z"/><path d="m198.602 23.92c3.734 3.731 9.391-1.922 5.657-5.657l-8.167-8.167c-3.738-3.736-9.399 1.914-5.657 5.657z"/></g></svg>